<?xml version="1.0" standalone="no"?>
<!DOCTYPE svg PUBLIC "-//W3C//DTD SVG 20010904//EN"
 "http://www.w3.org/TR/2001/REC-SVG-20010904/DTD/svg10.dtd">
<svg version="1.0" xmlns="http://www.w3.org/2000/svg"
 width="149.000000pt" height="149.000000pt" viewBox="0 0 149.000000 149.000000"
 preserveAspectRatio="xMidYMid meet">
<metadata>
Created by potrace 1.14, written by Peter Selinger 2001-2017
</metadata>
<g transform="translate(0.000000,149.000000) scale(0.100000,-0.100000)"
fill="#000000" stroke="none">
<path d="M751 1363 c36 -88 82 -233 76 -239 -7 -7 -116 83 -117 97 0 25 -55
104 -91 132 -19 14 -52 30 -74 36 -31 8 -280 14 -452 11 -20 0 -23 -5 -23 -37
0 -45 15 -103 41 -159 l20 -41 -45 -84 c-146 -274 -99 -609 118 -831 85 -87
164 -136 286 -179 89 -32 119 -34 460 -32 179 2 374 3 434 3 108 0 108 0 102
22 -4 13 -9 30 -11 40 -10 46 -66 138 -110 183 l-50 52 43 84 c53 105 72 179
77 294 8 202 -61 383 -200 527 -128 132 -318 218 -481 218 l-42 0 39 -97z m55
-432 c20 -1 14 -23 -31 -116 -39 -81 -94 -140 -167 -181 -69 -37 -170 -41
-214 -8 -71 53 -94 141 -55 211 30 52 80 85 122 81 18 -3 54 1 80 6 38 9 155
12 265 7z"/>
</g>
</svg>
